<svg xmlns="http://www.w3.org/2000/svg" aria-hidden="true" style="position:absolute;width:0;height:0;overflow:hidden">
  <defs>
  <!-- burger, close, logo -->
    <symbol id="icon-burger-menu" viewBox="0 0 32 32">
      <path stroke-linecap="round" stroke-linejoin="round" stroke-width="2" d="M28 13.333H4M28 8H4M28 18.667H4M28 24H4"/>
    </symbol>
    <symbol id="icon-close-menu" viewBox="0 0 32 32">
      <path stroke-linecap="round" stroke-linejoin="round" stroke-width="2" d="M24 8 8 24M8 8l16 16"/>
    </symbol>
    <symbol id="icon-logo" viewBox="0 0 229 32">
      <path d="M0 32V0h5.702l14.084 10.383h.213L34.083 0h5.702v32h-6.808V8.951l-9.659 6.803V32H16.51V15.754L6.809 8.951V32H.001zM46.174 32V0h6.808v32h-6.808zM59.356 32V0h6.893l21.53 23.004V0h6.808v32h-6.893L66.164 8.951V32h-6.808zM100.96 32V0h6.808v32h-6.808zM114.142 32V0h5.701l14.084 10.383h.213L148.224 0h5.702v32h-6.808V8.951l-9.659 6.803V32h-6.808V15.754l-9.701-6.803V32h-6.808zM157.764 32l13.701-32h10.51l13.701 32h-7.404l-2.893-6.758h-17.317L165.169 32h-7.403zm12.764-12.576h12.382l-5.914-13.829h-.553l-5.914 13.829zM199.51 32V0h6.808v26.182h22.253V32H199.51z"/>
    </symbol>
  <!-- media -->
    <symbol id="fb" viewBox="0 0 32 32">
      <path d="M31.294 16c0-3.025-.897-5.982-2.578-8.497s-4.069-4.475-6.864-5.633C19.057.712 15.982.41 13.015 1S7.323 3.047 5.184 5.186C3.045 7.325 1.588 10.05.998 13.017s-.287 6.042.87 8.837c1.158 2.795 3.118 5.183 5.633 6.864s5.472 2.578 8.497 2.578c4.055-.004 7.943-1.616 10.81-4.484s4.48-6.755 4.484-10.81zM17.176 28.882v-9.353h3.529c.312 0 .611-.124.832-.345s.345-.52.345-.832c0-.312-.124-.611-.345-.832s-.52-.345-.832-.345h-3.529v-3.529c0-.624.248-1.223.689-1.664s1.04-.689 1.664-.689h2.353c.312 0 .611-.124.832-.345s.345-.52.345-.832c0-.312-.124-.611-.345-.832s-.52-.345-.832-.345h-2.353c-1.247.004-2.442.501-3.323 1.383s-1.379 2.076-1.383 3.323v3.529h-3.529c-.312 0-.611.124-.832.345s-.345.52-.345.832c0 .312.124.611.345.832s.52.345.832.345h3.529v9.353c-3.317-.303-6.389-1.872-8.577-4.382s-3.326-5.767-3.174-9.094c.152-3.327 1.58-6.467 3.988-8.768S12.67 3.052 16 3.052c3.33 0 6.532 1.284 8.94 3.585s3.836 5.441 3.988 8.768c.152 3.327-.985 6.584-3.174 9.094s-5.261 4.08-8.577 4.382z"/>
    </symbol>
    <symbol id="inst" viewBox="0 0 32 32">
      <path d="M16 8.5c-1.483 0-2.933.44-4.167 1.264s-2.195 1.995-2.762 3.366c-.568 1.37-.716 2.878-.427 4.333s1.004 2.791 2.053 3.84 2.385 1.763 3.84 2.053c1.455.289 2.963.141 4.333-.427s2.542-1.529 3.366-2.762A7.49918 7.49918 0 0 0 23.5 16c0-1.989-.79-3.897-2.197-5.303S17.989 8.5 16 8.5zM16 21c-.989 0-1.956-.293-2.778-.843s-1.463-1.33-1.841-2.244-.477-1.919-.284-2.889c.193-.97.669-1.861 1.368-2.56s1.59-1.175 2.56-1.368c.97-.193 1.975-.094 2.889.284s1.695 1.019 2.244 1.841c.549.822.843 1.789.843 2.778-.004 1.325-.532 2.594-1.469 3.531s-2.206 1.465-3.531 1.469zM22.875.375H9.125c-2.321 0-4.546.922-6.187 2.563S.375 6.805.375 9.125v13.75c0 2.321.922 4.546 2.563 6.187s3.867 2.563 6.187 2.563h13.75c2.321 0 4.546-.922 6.187-2.563s2.563-3.867 2.563-6.187V9.125c0-2.321-.922-4.546-2.563-6.187S25.195.375 22.875.375zm6.25 22.5c0 .821-.162 1.634-.476 2.392s-.774 1.447-1.355 2.028c-.58.58-1.269 1.041-2.028 1.355s-1.571.476-2.392.476H9.124c-.821 0-1.633-.162-2.392-.476s-1.447-.774-2.028-1.355c-.58-.58-1.041-1.269-1.355-2.028s-.476-1.571-.476-2.392V9.125c0-1.658.658-3.247 1.831-4.419s2.762-1.831 4.419-1.831h13.75c.821 0 1.634.162 2.392.476s1.447.774 2.028 1.355c.58.58 1.041 1.269 1.355 2.028s.476 1.571.476 2.392v13.75zM26 7.875c0 .371-.11.733-.316 1.042s-.499.549-.841.691c-.343.142-.72.179-1.083.107s-.698-.251-.96-.513-.441-.596-.513-.96-.035-.741.107-1.083.382-.635.691-.841c.308-.206.671-.316 1.042-.316.497 0 .974.198 1.326.549s.549.829.549 1.326z"/>
    </symbol>
    <symbol id="youtube" viewBox="0 0 41 32">
      <path d="M27.071 14.804 18.5 9.09c-.217-.138-.466-.217-.723-.229s-.512.042-.742.158c-.228.123-.419.306-.551.53s-.201.479-.199.738v11.429c-.002.26.067.515.199.738s.323.407.551.53c.211.105.443.16.679.161.278-.003.55-.083.786-.232l8.571-5.714c.199-.13.362-.307.476-.516s.172-.443.172-.68c0-.238-.059-.471-.172-.68s-.277-.386-.476-.516zm-7.928 4.25v-6.107l4.571 3.054-4.571 3.054zM39.554 5.607c-.164-.658-.486-1.267-.936-1.774s-1.018-.897-1.653-1.137C30.858.339 21.108.357 20.572.357S10.286.339 4.179 2.696c-.635.24-1.202.63-1.653 1.137s-.772 1.116-.936 1.774C1.126 7.375.572 10.625.572 16s.554 8.625 1.018 10.393c.164.658.485 1.267.936 1.774s1.018.897 1.653 1.137c5.857 2.268 15.036 2.339 16.268 2.339h.25c1.232 0 10.411-.071 16.268-2.339.635-.24 1.202-.63 1.653-1.137s.772-1.116.936-1.774c.464-1.768 1.018-5.018 1.018-10.393s-.554-8.625-1.018-10.393zm-2.768 20.072c-.053.216-.156.416-.303.584s-.33.298-.537.38c-5.661 2.179-15.268 2.143-15.375 2.143h-.018c-.089 0-9.696.036-15.357-2.143-.207-.082-.391-.212-.537-.38s-.25-.368-.302-.584c-.429-1.625-.929-4.607-.929-9.679s.5-8.054.929-9.679c.053-.216.156-.416.302-.584s.33-.298.537-.38c5.446-2.089 14.589-2.143 15.339-2.143h.036c.107 0 9.714-.036 15.375 2.143.207.082.391.212.537.38s.25.368.303.584c.429 1.625.929 4.607.929 9.679s-.5 8.054-.929 9.679z"/>
    </symbol>
    <!-- form -->
   <symbol id="icon-vector" viewBox="0 0 40 32">
    <path d="M33.782 1.020c0.691-0.662 1.611-1.027 2.565-1.020s1.869 0.387 2.55 1.059c0.681 0.672 1.076 1.584 1.101 2.543s-0.321 1.891-0.966 2.598l-19.578 24.617c-0.337 0.365-0.743 0.657-1.195 0.86s-0.939 0.312-1.434 0.322c-0.495 0.009-0.986-0.082-1.445-0.268s-0.876-0.463-1.226-0.815l-12.984-13.054c-0.362-0.339-0.652-0.747-0.853-1.201s-0.309-0.944-0.318-1.441 0.082-0.99 0.267-1.451c0.185-0.461 0.461-0.879 0.81-1.231s0.766-0.628 1.224-0.814 0.949-0.277 1.443-0.269c0.494 0.009 0.981 0.118 1.433 0.32s0.858 0.494 1.195 0.857l10.275 10.325 17.042-21.83c0.031-0.038 0.063-0.074 0.098-0.109h-0.005z"></path>
    </symbol>
    <symbol id="icon-error" viewBox="0 0 32 32">
    <path d="M14.667 20h2.667v2.667h-2.667v-2.667zM14.667 9.333h2.667v8h-2.667v-8zM15.987 2.667c-7.36 0-13.32 5.973-13.32 13.333s5.96 13.333 13.32 13.333c7.373 0 13.347-5.973 13.347-13.333s-5.973-13.333-13.347-13.333zM16 26.667c-5.893 0-10.667-4.773-10.667-10.667s4.773-10.667 10.667-10.667c5.893 0 10.667 4.773 10.667 10.667s-4.773 10.667-10.667 10.667z"></path>
    </symbol>
  </defs>
</svg>
